# AST/ASF file generated using VICON BodyLanguage
# -----------------------------------------------
:version 1.10
:name VICON
:units
  mass 1.0
  length 0.45
  angle deg
:documentation
   .ast/.asf automatically generated from VICON data using
   VICON BodyBuilder and BodyLanguage model FoxedUp or BRILLIANT.MOD
:root
   order TX TY TZ RX RY RZ
   axis XYZ
   position 0 0 0  
   orientation 0 0 0 
:bonedata
  begin
     id 1 
     name lhipjoint
     direction 0.521689 -0.742065 0.420928 
     length 2.47002 
     axis 0 0 0  XYZ
  end
  begin
     id 2 
     name lfemur
     direction 0.34202 -0.939693 0  
     length 7.24654  
     axis 0 0 20  XYZ
    dof rx ry rz
    limits (-160.0 20.0)
           (-70.0 70.0)
           (-60.0 70.0)
  end
  begin
     id 3 
     name ltibia
     direction 0.34202 -0.939693 0   
     length 8.04849   
     axis 0 0 20   XYZ
    dof rx
    limits (-10.0 170.0)
  end
  begin
     id 4 
     name lfoot
     direction 0.0745411 -0.2048 0.975961   
     length 1.72367   
     axis -90 7.62852e-016 20   XYZ
    dof rx rz
    limits (-45.0 90.0)
           (-70.0 20.0)
  end
  begin
     id 5 
     name ltoes
     direction 1.53556e-011 -4.21901e-011 1   
     length 0.87311   
     axis -90 7.62852e-016 20   XYZ
    dof rx
    limits (-90.0 20.0)
  end
  begin
     id 6 
     name rhipjoint
     direction -0.52849 -0.738415 0.418857   
     length 2.48223  
     axis 0 0 0  XYZ 
  end
  begin
     id 7 
     name rfemur
     direction -0.34202 -0.939693 0   
     length 7.15571   
     axis 0 0 -20   XYZ
    dof rx ry rz
    limits (-160.0 20.0)
           (-70.0 70.0)
           (-70.0 60.0)
  end
  begin
     id 8 
     name rtibia
     direction -0.34202 -0.939693 0   
     length 7.81659   
     axis 0 0 -20   XYZ
    dof rx
    limits (-10.0 170.0)
 end
 begin
     id 9 
     name rfoot
     direction -0.0917348 -0.252039 0.963359   
     length 1.84382  
     axis -90 -7.62852e-016 -20   XYZ
    dof rx rz
    limits (-45.0 90.0)
           (-20.0 70.0)
  end
  begin
     id 10 
     name rtoes
     direction -1.53551e-011 -4.21879e-011 1   
     length 0.927771   
     axis -90 -7.62852e-016 -20   XYZ
    dof rx
    limits (-90.0 20.0)
  end
  begin
     id 11 
     name lowerback
     direction 0.00583058 0.999822 0.0179296   
     length 2.1429   
     axis 0 0 0   XYZ
    dof rx ry rz
    limits (-20.0 45.0)
           (-30.0 30.0)
           (-30.0 30.0)
  end
  begin
     id 12 
     name upperback
     direction -0.0137999 0.999752 -0.0175071   
     length 2.14252   
     axis 0 0 0   XYZ
    dof rx ry rz
    limits (-20.0 45.0)
           (-30.0 30.0)
           (-30.0 30.0)
  end
  begin
     id 13 
     name thorax
     direction -0.0158036 0.99955 -0.0254909   
     length 2.1383   
     axis 0 0 0   XYZ
    dof rx ry rz
    limits (-20.0 45.0)
           (-30.0 30.0)
           (-30.0 30.0)
  end
  begin
     id 14 
     name lowerneck
     direction -0.0101179 0.999403 -0.0330262   
     length 1.65808   
     axis 0 0 0   XYZ
    dof rx ry rz
    limits (-20.0 45.0)
           (-30.0 30.0)
           (-30.0 30.0)
  end
  begin
     id 15 
     name upperneck
     direction 0.0497734 0.995978 -0.074501   
     length 1.5897   
     axis 0 0 0   XYZ
    dof rx ry rz
    limits (-20.0 45.0)
           (-30.0 30.0)
           (-30.0 30.0)
  end
  begin
     id 16
     name head
     direction 0.0189524 0.999519 -0.0245438  
     length 1.74024  
     axis 0 0 0   XYZ
    dof rx ry rz
    limits (-20.0 45.0)
           (-30.0 30.0)
           (-30.0 30.0)
  end
  begin
     id 17 
     name lclavicle
     direction 0.945604 0.324422 0.0241537  
     length 3.59089  
     axis 0 0 0   XYZ
    dof ry rz
    limits (-20.0 10.0)
           (0.0 20.0)
  end
  begin
     id 18 
     name lhumerus
     direction 1 -4.48964e-011 -2.63524e-027   
     length 5.2391   
     axis 180 -30 -90   XYZ
    dof rx ry rz
    limits (-60.0 90.0)
           (-90.0 90.0)
           (-90.0 90.0)
  end
  begin
     id 19
     name lradius
     direction 1 -4.48969e-011 3.86978e-028   
     length 3.31467   
     axis 180 -30 -90   XYZ
    dof rx
    limits (-10.0 170.0)
  end
  begin
     id 20
     name lwrist
     direction 1 -4.48963e-011 7.20928e-028   
     length 1.65734   
     axis -5.52449e-016 90 90   XYZ
    dof ry
    limits (-180.0 0.0)
 end
  begin
     id 21 
     name lhand
     direction 1 -4.48964e-011 1.44186e-027   
     length 0.9659   
     axis -9.20027e-016 90 90   XYZ
    dof rx rz
    limits (-90.0 90.0)
           (-45.0 45.0)
  end
  begin
     id 22 
     name lfingers
     direction 1 -4.48965e-011 2.88371e-027   
     length 0.778733   
     axis -1.84005e-015 90 90   XYZ
    dof rx
    limits (0.0 90.0)
  end
  begin
     id 23
     name lthumb
     direction 0.707107 -6.34931e-011 0.707107   
     length 1.11811   
     axis -90 45 2.85299e-015   XYZ
    dof rx rz
    limits (-45.0 45.0)
           (-45.0 45.0)
  end
  begin
     id 24 
     name rclavicle
     direction -0.923762 0.370785 0.0958234   
     length 3.54196  
     axis 0 0 0   XYZ 
    dof ry rz
    limits (-10.0 20.0)
           (-20.0 0.0)
  end
  begin
     id 25 
     name rhumerus
     direction -1 -4.48966e-011 1.18702e-017  
     length 5.30252   
     axis 180 30 90   XYZ
    dof rx ry rz
    limits (-90.0 60.0)
           (-90.0 90.0)
           (-90.0 90.0)
  end
  begin
     id 26 
     name rradius
     direction -1 -4.48966e-011 4.46736e-027   
     length 3.67875   
     axis 180 30 90   XYZ
    dof rx
    limits (-10.0 170.0)
  end
  begin
     id 27 
     name rwrist
     direction -1 -4.48966e-011 7.20928e-028   
     length 1.83937   
     axis -5.52449e-016 -90 -90   XYZ
    dof ry
    limits (-180.0 0.0)
  end
  begin
     id 28
     name rhand
     direction -1 -4.48973e-011 1.44186e-027   
     length 0.594811   
     axis -9.20027e-016 -90 -90   XYZ
    dof rx rz
    limits (-90.0 90.0)
           (-45.0 45.0)
  end
  begin
     id 29
     name rfingers
     direction -1 -4.48963e-011 2.88371e-027   
     length 0.479552   
     axis -1.84005e-015 -90 -90   XYZ
    dof rx
    limits (0.0 90.0)
  end
  begin
     id 30
     name rthumb
     direction -0.707107 -6.34932e-011 0.707107   
     length 0.688544   
     axis -90 -45 -2.85299e-015   XYZ
    dof rx rz
    limits (-45.0 45.0)
           (-45.0 45.0)
  end
:hierarchy
  begin
    root lhipjoint rhipjoint lowerback
    lhipjoint lfemur
    lfemur ltibia
    ltibia lfoot
    lfoot ltoes
    rhipjoint rfemur
    rfemur rtibia
    rtibia rfoot
    rfoot rtoes
    lowerback upperback
    upperback thorax
    thorax lowerneck lclavicle rclavicle
    lowerneck upperneck
    upperneck head
    lclavicle lhumerus
    lhumerus lradius
    lradius lwrist
    lwrist lhand lthumb
    lhand lfingers
    rclavicle rhumerus
    rhumerus rradius
    rradius rwrist
    rwrist rhand rthumb
    rhand rfingers
  end

#!OML:ASF E:\acrobat2\Project_11_07_03\Capture day 1\Session 1\Acrobat.ASF
:FULLY-SPECIFIED
:DEGREES
521
root 11.9051 18.7419 8.80911 220.361 -3.64769 1.47922
lowerback -11.0899 -0.057795 3.15016
upperback -9.83155 -0.273062 -0.457382
thorax -4.12154 -0.313192 -2.26418
lowerneck -9.76341 -0.950812 -1.75018
upperneck -25.3211 -0.121036 5.78241
head -6.12293 -0.134578 2.16547
rclavicle 8.34896e-015 -7.55382e-015
rhumerus 86.8069 -32.5884 -82.2631
rradius 61.5738
rwrist -4.5958
rhand -46.4168 -51.1462
rfingers 7.12502
rthumb -19.1466 -80.2237
lclavicle 8.34896e-015 -7.55382e-015
lhumerus 82.1495 24.0663 65.8818
lradius 71.6752
lwrist 15.273
lhand -46.31 -75.9306
lfingers 7.12502
lthumb -19.0439 -46.8429
rfemur 19.2457 -6.45397 10.7972
rtibia 38.5055
rfoot 8.35002 -9.05282
rtoes 27.0401
lfemur 11.3955 7.72861 -5.89887
ltibia 41.5453
lfoot -2.46403 -3.96042
ltoes -14.0513
522
root 11.927 18.8309 9.07385 223.147 -3.40426 1.27626
lowerback -11.3886 -0.0493203 2.99209
upperback -10.3604 -0.256175 -0.594953
thorax -4.52991 -0.315068 -2.31873
lowerneck -10.2023 -0.896138 -1.69987
upperneck -25.3441 -0.0842586 5.65805
head -6.06528 -0.115995 2.1157
rclavicle 1.16289e-014 2.18663e-014
rhumerus 90.4242 -32.954 -83.442
rradius 58.6991
rwrist -4.4402
rhand -46.2143 -50.4375
rfingers 7.12502
rthumb -18.9518 -79.5342
lclavicle 1.16289e-014 2.18663e-014
lhumerus 86.0147 25.142 66.5514
lradius 67.8395
lwrist 15.2449
lhand -46.0815 -75.126
lfingers 7.12502
lthumb -18.8241 -46.0168
rfemur 19.9542 -6.40145 9.47601
rtibia 41.8448
rfoot 8.28288 -8.68694
rtoes 24.8931
lfemur 12.766 7.68949 -4.99613
ltibia 43.2221
lfoot -1.12976 -4.11271
ltoes -10.2569
523
root 11.9513 18.9086 9.34477 226.03 -3.32562 1.22269
lowerback -11.6424 -0.0585608 3.05625
upperback -10.8438 -0.272812 -0.647035
thorax -4.92213 -0.341096 -2.41129
lowerneck -10.7011 -0.807788 -1.63191
upperneck -25.1819 -0.0212798 5.49577
head -5.93934 -0.0853654 2.04796
rclavicle -3.08116e-015 1.19271e-014
rhumerus 94.3659 -33.46 -84.5353
rradius 55.5883
rwrist -4.46023
rhand -45.9977 -49.933
rfingers 7.12502
rthumb -18.7435 -79.05
lclavicle -3.08116e-015 1.19271e-014
lhumerus 90.0766 26.3392 67.3117
lradius 63.8852
lwrist 15.2435
lhand -45.8728 -74.3107
lfingers 7.12502
lthumb -18.6233 -45.1822
rfemur 20.5942 -6.2962 8.46258
rtibia 45.0123
rfoot 7.88182 -8.65946
rtoes 22.1461
lfemur 13.956 7.53608 -3.9502
ltibia 44.9556
lfoot 0.0877061 -4.07957
ltoes -5.81275
524
root 11.9766 18.9735 9.62172 229.032 -3.39363 1.27818
lowerback -11.8998 -0.0845433 3.27657
upperback -11.2784 -0.318478 -0.609219
thorax -5.26658 -0.385699 -2.49936
lowerneck -11.2004 -0.700105 -1.52265
upperneck -24.9458 0.0495908 5.25847
head -5.79085 -0.0518106 1.94855
rclavicle -4.96962e-015 1.03368e-014
rhumerus 98.58 -34.1659 -85.4736
rradius 52.3094
rwrist -4.74878
rhand -45.7706 -49.6884
rfingers 7.12502
rthumb -18.525 -78.8263
lclavicle -4.96962e-015 1.03368e-014
lhumerus 94.2453 27.694 68.1033
lradius 59.9779
lwrist 15.3951
lhand -45.705 -73.1974
lfingers 7.12502
lthumb -18.462 -44.0535
rfemur 21.1372 -6.15317 7.74461
rtibia 47.985
rfoot 7.28874 -8.89525
rtoes 19.7806
lfemur 14.9296 7.31684 -2.80555
ltibia 46.7714
lfoot 1.04686 -4.10635
ltoes -3.08451
525
root 12.0035 19.0228 9.90661 232.141 -3.62638 1.41843
lowerback -12.1449 -0.121673 3.65954
upperback -11.6614 -0.386074 -0.483389
thorax -5.56874 -0.446661 -2.58731
lowerneck -11.6812 -0.572916 -1.38752
upperneck -24.6469 0.13223 4.96129
head -5.62623 -0.0133463 1.82557
rclavicle 4.57205e-015 1.59028e-014
rhumerus 102.963 -35.143 -86.1864
rradius 48.9789
rwrist -5.40602
rhand -45.4644 -49.7179
rfingers 7.12502
rthumb -18.2304 -78.8836
lclavicle 4.57205e-015 1.59028e-014
lhumerus 98.376 29.2619 68.8226
lradius 56.3192
lwrist 15.8985
lhand -45.5642 -71.6
lfingers 7.12502
lthumb -18.3265 -42.4433
rfemur 21.5704 -5.98343 7.32861
rtibia 50.7541
rfoot 6.60672 -9.28346
rtoes 18.3641
lfemur 15.6884 7.06169 -1.55067
ltibia 48.6765
lfoot 1.79069 -4.28119
ltoes -1.86482
